<?xml version="1.0" ?><svg id="Layer_1" style="enable-background:new 0 0 62 62;" version="1.1" viewBox="0 0 62 62" xml:space="preserve" xmlns="http://www.w3.org/2000/svg" xmlns:xlink="http://www.w3.org/1999/xlink"><style type="text/css">
	.st0{fill:#5FD2FF;}
	.st1{fill:#FFFFFF;}
	.st2{fill:#0082ED;}
	.st3{fill:#2BA8FC;}
	.st4{fill:#CECECE;}
	.st5{fill:#F92B75;}
	.st6{fill:#3BB0FF;}
	.st7{fill:#CE004F;}
	.st8{fill:none;stroke:#ED0C68;stroke-width:5;stroke-linecap:round;stroke-linejoin:round;stroke-miterlimit:10;}
	.st9{fill:#ED0C68;}
	.st10{fill:#78DED4;}
	.st11{fill:#1E5363;}
	.st12{fill:#54C8E8;}
	.st13{fill:#F4F4F4;}
	.st14{fill:#0C82EB;}
	.st15{fill:#00B2E3;}
	.st16{fill:#68A2B9;}
	.st17{fill:#A2C5D3;}
	.st18{fill:#76777A;}
	.st19{fill:#A7A8A9;}
	.st20{fill:#D6D6D6;}
	.st21{fill:none;stroke:#F92B75;stroke-width:5;stroke-linecap:round;stroke-linejoin:round;stroke-miterlimit:10;}
	.st22{fill:#FD4A5C;}
	.st23{fill:#FF8E9F;}
	.st24{fill:none;stroke:#F458A3;stroke-width:5;stroke-linecap:round;stroke-linejoin:round;stroke-miterlimit:10;}
	.st25{fill:#FFB259;}
	.st26{fill:#F32735;}
	.st27{fill:#FF9E18;}
	.st28{fill:#FFC27A;}
	.st29{fill:#FFC56D;}
	.st30{fill:none;stroke:#FD4A5C;stroke-width:5;stroke-linecap:round;stroke-linejoin:round;stroke-miterlimit:10;}
	.st31{fill:#0069A7;}
	.st32{fill:#D8D8D8;}
	.st33{fill:#8CB7C9;}
	.st34{fill:#65BAAF;}
	.st35{fill:#00AF9A;}
	.st36{fill:#00C4B3;}
	.st37{fill:#19D3C5;}
	.st38{fill:none;stroke:#54C8E8;stroke-width:5;stroke-linecap:round;stroke-linejoin:round;stroke-miterlimit:10;}
	.st39{fill:#8331A7;}
	.st40{fill:#009383;}
	.st41{fill:#98989A;}
	.st42{fill:#636569;}
	.st43{fill:#898A8D;}
	.st44{fill:#FFB548;}
	.st45{fill:none;stroke:#FFB548;stroke-width:5;stroke-linecap:round;stroke-linejoin:round;stroke-miterlimit:10;}
	.st46{fill:#ED40A9;}
	.st47{fill:#CB007B;}
	.st48{fill:#E50695;}
	.st49{fill:#D7282F;}
	.st50{fill:#E5E5E5;}
	.st51{fill:#FFA4B4;}
	.st52{fill:#F6A7D7;}
	.st53{fill:#F478C4;}
	.st54{fill:#E0C7E6;}
	.st55{fill:#B980D0;}
	.st56{fill:#D9B7E2;}
	.st57{fill:#BADF93;}
	.st58{fill:#4C9C2E;}
	.st59{fill:#3DAE2B;}
	.st60{fill:#AADA91;}
	.st61{fill:#6ABF4B;}
	.st62{fill:#EFB8A9;}
	.st63{fill:#FECB8B;}
	.st64{fill:#BDE8EF;}
	.st65{fill:#CCA1DD;}
	.st66{fill:#B2B2B2;}
	.st67{fill:none;stroke:#FF8300;stroke-width:5;stroke-linecap:round;stroke-linejoin:round;stroke-miterlimit:10;}
	.st68{fill:none;stroke:#FF9E18;stroke-width:5;stroke-linecap:round;stroke-linejoin:round;stroke-miterlimit:10;}
	.st69{fill:#96DAEA;}
	.st70{fill:#FF8300;}
	.st71{fill:none;stroke:#6ABF4B;stroke-width:5;stroke-linecap:round;stroke-linejoin:round;stroke-miterlimit:10;}
	.st72{fill:none;}
	.st73{fill:#444444;}
	.st74{fill:#FDCF85;}
</style><g><g><rect class="st13" height="29.91" width="42.85" x="16.65" y="16.05"/><path class="st14" d="M59.5,48.46H16.65c-1.38,0-2.5-1.12-2.5-2.5V16.05c0-1.38,1.12-2.5,2.5-2.5H59.5c1.38,0,2.5,1.12,2.5,2.5    v29.91C62,47.34,60.88,48.46,59.5,48.46z M19.15,43.46H57V18.55H19.15V43.46z"/><path class="st13" d="M39.65,36.73L59.5,16.05H16.65L36.5,36.73C37.36,37.63,38.79,37.63,39.65,36.73z"/><path class="st14" d="M16.65,48.45c-0.64,0-1.28-0.24-1.77-0.73c-0.98-0.98-0.98-2.56,0-3.54l14.65-14.64    c0.98-0.97,2.56-0.98,3.54,0c0.98,0.98,0.98,2.56,0,3.54L18.42,47.72C17.93,48.21,17.29,48.45,16.65,48.45z"/><path class="st14" d="M59.5,48.45c-0.64,0-1.28-0.24-1.77-0.73L43.08,33.08c-0.98-0.98-0.98-2.56,0-3.54    c0.98-0.98,2.56-0.98,3.54,0l14.65,14.64c0.98,0.98,0.98,2.56,0,3.54C60.78,48.21,60.14,48.45,59.5,48.45z"/><path class="st16" d="M38.08,39.9c-1.27,0-2.5-0.53-3.38-1.44L14.85,17.78c-0.69-0.72-0.89-1.79-0.5-2.71    c0.39-0.92,1.3-1.52,2.3-1.52H59.5c1,0,1.91,0.6,2.3,1.52s0.2,1.99-0.5,2.71L41.45,38.46C40.57,39.38,39.34,39.9,38.08,39.9z     M37.84,35L37.84,35L37.84,35L37.84,35z M22.52,18.55l15.56,16.21l15.56-16.21H22.52z"/><path class="st17" d="M28.12,30.5c-0.66,0-1.31-0.26-1.8-0.77l-7.68-8.01c-0.96-1-0.92-2.58,0.07-3.53c1-0.96,2.58-0.92,3.53,0.07    l7.68,8.01c0.96,1,0.92,2.58-0.07,3.53C29.37,30.27,28.75,30.5,28.12,30.5z"/></g><g><polygon class="st10" points="35.31,58.66 2.5,53.22 2.5,8.78 35.31,3.34   "/><path class="st14" d="M35.31,61.16c-0.14,0-0.27-0.01-0.41-0.03L2.09,55.69C0.88,55.49,0,54.44,0,53.22V8.78    c0-1.22,0.88-2.27,2.09-2.47L34.9,0.87c0.73-0.12,1.47,0.08,2.03,0.56c0.56,0.48,0.88,1.17,0.88,1.91v55.32    c0,0.73-0.32,1.43-0.88,1.91C36.47,60.95,35.89,61.16,35.31,61.16z M5,51.1l27.81,4.61V6.29L5,10.9V51.1z"/></g><path class="st15" d="M2.5,32.82c-1.38,0-2.5-1.12-2.5-2.5V8.78c0-1.22,0.88-2.27,2.09-2.47l16.4-2.72   c1.37-0.23,2.65,0.69,2.87,2.06c0.23,1.36-0.69,2.65-2.06,2.87L5,10.9v19.42C5,31.7,3.88,32.82,2.5,32.82z"/><g><ellipse class="st13" cx="18.9" cy="31" rx="6.28" ry="8.92"/><g><path class="st14" d="M18.9,42.42c-4.92,0-8.78-5.01-8.78-11.42s3.86-11.42,8.78-11.42S27.69,24.6,27.69,31     S23.83,42.42,18.9,42.42z M18.9,24.58c-1.79,0-3.78,2.64-3.78,6.42s1.99,6.42,3.78,6.42c1.79,0,3.78-2.64,3.78-6.42     S20.69,24.58,18.9,24.58z"/></g></g></g></svg>