<?xml version="1.0" ?><svg fill="none" height="32" viewBox="0 0 32 32" width="32" xmlns="http://www.w3.org/2000/svg"><path d="M3 9.3736C3 8.54605 3.50966 7.80398 4.28204 7.50691L15.282 3.27614C15.7442 3.09839 16.2558 3.09839 16.718 3.27614L27.718 7.50691C28.4903 7.80398 29 8.54605 29 9.3736V27C29 28.1046 28.1046 29 27 29H5C3.89543 29 3 28.1046 3 27V9.3736Z" fill="#EB666B" stroke="#EB666B" stroke-width="2"/><path d="M11 24V28H21V24C21 22.8954 20.1046 22 19 22H13C11.8954 22 11 22.8954 11 24Z" fill="#F8C09D"/><path d="M11 28H10V29H11V28ZM21 28V29H22V28H21ZM12 28V24H10V28H12ZM13 23H19V21H13V23ZM20 24V28H22V24H20ZM11 29H21V27H11V29ZM19 23C19.5523 23 20 23.4477 20 24H22C22 22.3431 20.6569 21 19 21V23ZM12 24C12 23.4477 12.4477 23 13 23V21C11.3431 21 10 22.3431 10 24H12Z" fill="#F8C09D"/><circle cx="16" cy="16" fill="#F8C09D" r="2" stroke="#F8C09D" stroke-width="2"/><path d="M3 9.3736C3 8.54605 3.50966 7.80398 4.28204 7.50691L15.282 3.27614C15.7442 3.09839 16.2558 3.09839 16.718 3.27614L27.718 7.50691C28.4903 7.80398 29 8.54605 29 9.3736V27C29 28.1046 28.1046 29 27 29H5C3.89543 29 3 28.1046 3 27V9.3736Z" stroke="black" stroke-width="2"/><path d="M11 28V24C11 22.8954 11.8954 22 13 22H19C20.1046 22 21 22.8954 21 24V28" stroke="black" stroke-linecap="round" stroke-linejoin="bevel" stroke-width="2"/><circle cx="16" cy="16" r="2" stroke="black" stroke-width="2"/></svg>